<mxfile host="app.diagrams.net" agent="Mozilla/5.0 (Windows NT 10.0; Win64; x64) AppleWebKit/537.36 (KHTML, like Gecko) Chrome/128.0.0.0 Safari/537.36 Edg/128.0.0.0" version="24.8.6">
  <diagram name="Page-1" id="lWnANn24pArczgeVKB_q">
    <mxGraphModel dx="1666" dy="791" grid="1" gridSize="10" guides="1" tooltips="1" connect="1" arrows="1" fold="1" page="1" pageScale="1" pageWidth="850" pageHeight="1100" math="0" shadow="0">
      <root>
        <mxCell id="0" />
        <mxCell id="1" parent="0" />
        <mxCell id="LA8SUX1s0ZZqTIhd27PU-1" value="Apigee Gateway" style="whiteSpace=wrap;strokeWidth=2;" vertex="1" parent="1">
          <mxGeometry x="318" y="29" width="279" height="218" as="geometry" />
        </mxCell>
        <mxCell id="LA8SUX1s0ZZqTIhd27PU-2" value="Backend Processing" style="whiteSpace=wrap;strokeWidth=2;" vertex="1" parent="1">
          <mxGeometry x="647" y="20" width="746" height="137" as="geometry" />
        </mxCell>
        <mxCell id="LA8SUX1s0ZZqTIhd27PU-3" value="SFTP Server" style="whiteSpace=wrap;strokeWidth=2;" vertex="1" parent="1">
          <mxGeometry x="1755" y="267" width="258" height="119" as="geometry" />
        </mxCell>
        <mxCell id="LA8SUX1s0ZZqTIhd27PU-4" value="Corporate Customer" style="whiteSpace=wrap;strokeWidth=2;" vertex="1" parent="1">
          <mxGeometry x="20" y="267" width="1685" height="236" as="geometry" />
        </mxCell>
        <mxCell id="LA8SUX1s0ZZqTIhd27PU-5" value="File Upload via SFTP" style="whiteSpace=wrap;strokeWidth=2;" vertex="1" parent="1">
          <mxGeometry x="1459" y="302" width="206" height="49" as="geometry" />
        </mxCell>
        <mxCell id="LA8SUX1s0ZZqTIhd27PU-6" value="Send Checksum via API" style="whiteSpace=wrap;strokeWidth=2;" vertex="1" parent="1">
          <mxGeometry x="45" y="360" width="223" height="49" as="geometry" />
        </mxCell>
        <mxCell id="LA8SUX1s0ZZqTIhd27PU-7" value="Receive Notifications via RabbitMQ" style="whiteSpace=wrap;strokeWidth=2;" vertex="1" parent="1">
          <mxGeometry x="1443" y="401" width="237" height="67" as="geometry" />
        </mxCell>
        <mxCell id="LA8SUX1s0ZZqTIhd27PU-8" value="Query File Status API" style="whiteSpace=wrap;strokeWidth=2;" vertex="1" parent="1">
          <mxGeometry x="630" y="430" width="209" height="49" as="geometry" />
        </mxCell>
        <mxCell id="LA8SUX1s0ZZqTIhd27PU-9" value="Store Uploaded Files" style="whiteSpace=wrap;strokeWidth=2;" vertex="1" parent="1">
          <mxGeometry x="1780" y="302" width="208" height="49" as="geometry" />
        </mxCell>
        <mxCell id="LA8SUX1s0ZZqTIhd27PU-10" value="File Validation" style="whiteSpace=wrap;strokeWidth=2;" vertex="1" parent="1">
          <mxGeometry x="695" y="64" width="163" height="49" as="geometry" />
        </mxCell>
        <mxCell id="LA8SUX1s0ZZqTIhd27PU-11" value="File Processing" style="whiteSpace=wrap;strokeWidth=2;" vertex="1" parent="1">
          <mxGeometry x="931" y="64" width="165" height="49" as="geometry" />
        </mxCell>
        <mxCell id="LA8SUX1s0ZZqTIhd27PU-12" value="Update RabbitMQ with Status" style="whiteSpace=wrap;strokeWidth=2;" vertex="1" parent="1">
          <mxGeometry x="1146" y="55" width="222" height="67" as="geometry" />
        </mxCell>
        <mxCell id="LA8SUX1s0ZZqTIhd27PU-13" value="API: Validate Checksum" style="whiteSpace=wrap;strokeWidth=2;" vertex="1" parent="1">
          <mxGeometry x="343" y="64" width="229" height="49" as="geometry" />
        </mxCell>
        <mxCell id="LA8SUX1s0ZZqTIhd27PU-14" value="API: File Status Query" style="whiteSpace=wrap;strokeWidth=2;" vertex="1" parent="1">
          <mxGeometry x="348" y="163" width="218" height="49" as="geometry" />
        </mxCell>
        <mxCell id="LA8SUX1s0ZZqTIhd27PU-15" value="" style="curved=1;startArrow=none;endArrow=block;exitX=1;exitY=0.5;entryX=0;entryY=0.5;rounded=0;" edge="1" parent="1" source="LA8SUX1s0ZZqTIhd27PU-5" target="LA8SUX1s0ZZqTIhd27PU-9">
          <mxGeometry relative="1" as="geometry">
            <Array as="points" />
          </mxGeometry>
        </mxCell>
        <mxCell id="LA8SUX1s0ZZqTIhd27PU-16" value="" style="curved=1;startArrow=none;endArrow=block;exitX=1;exitY=0.5;entryX=0.45;entryY=1;rounded=0;" edge="1" parent="1" source="LA8SUX1s0ZZqTIhd27PU-6" target="LA8SUX1s0ZZqTIhd27PU-13">
          <mxGeometry relative="1" as="geometry">
            <Array as="points">
              <mxPoint x="110" y="130" />
              <mxPoint x="318" y="385" />
              <mxPoint x="190" y="70" />
            </Array>
          </mxGeometry>
        </mxCell>
        <mxCell id="LA8SUX1s0ZZqTIhd27PU-17" value="" style="curved=1;startArrow=none;endArrow=block;exitX=1;exitY=0.5;entryX=0;entryY=0.5;rounded=0;" edge="1" parent="1" source="LA8SUX1s0ZZqTIhd27PU-13" target="LA8SUX1s0ZZqTIhd27PU-10">
          <mxGeometry relative="1" as="geometry">
            <Array as="points" />
          </mxGeometry>
        </mxCell>
        <mxCell id="LA8SUX1s0ZZqTIhd27PU-18" value="" style="curved=1;startArrow=none;endArrow=block;exitX=1;exitY=0.5;entryX=0;entryY=0.5;rounded=0;" edge="1" parent="1" source="LA8SUX1s0ZZqTIhd27PU-10" target="LA8SUX1s0ZZqTIhd27PU-11">
          <mxGeometry relative="1" as="geometry">
            <Array as="points" />
          </mxGeometry>
        </mxCell>
        <mxCell id="LA8SUX1s0ZZqTIhd27PU-19" value="" style="curved=1;startArrow=none;endArrow=block;exitX=1;exitY=0.5;entryX=0;entryY=0.5;rounded=0;" edge="1" parent="1" source="LA8SUX1s0ZZqTIhd27PU-11" target="LA8SUX1s0ZZqTIhd27PU-12">
          <mxGeometry relative="1" as="geometry">
            <Array as="points" />
          </mxGeometry>
        </mxCell>
        <mxCell id="LA8SUX1s0ZZqTIhd27PU-20" value="" style="curved=1;startArrow=none;endArrow=block;exitX=1;exitY=0.5;entryX=0;entryY=0.49;rounded=0;" edge="1" parent="1" source="LA8SUX1s0ZZqTIhd27PU-12" target="LA8SUX1s0ZZqTIhd27PU-7">
          <mxGeometry relative="1" as="geometry">
            <Array as="points">
              <mxPoint x="1393" y="88" />
              <mxPoint x="1418" y="434" />
            </Array>
          </mxGeometry>
        </mxCell>
        <mxCell id="LA8SUX1s0ZZqTIhd27PU-21" value="" style="curved=1;startArrow=none;endArrow=block;exitX=1;exitY=0.5;entryX=0;entryY=0.5;rounded=0;" edge="1" parent="1" source="LA8SUX1s0ZZqTIhd27PU-14" target="LA8SUX1s0ZZqTIhd27PU-8">
          <mxGeometry relative="1" as="geometry">
            <Array as="points">
              <mxPoint x="597" y="187" />
              <mxPoint x="622" y="385" />
            </Array>
          </mxGeometry>
        </mxCell>
      </root>
    </mxGraphModel>
  </diagram>
</mxfile>
